# xmcd
#
# Track frame offsets: 
#        150
#        17408
#        40093
#        56813
#        73643
#        94055
#
# Disc length: 1487 seconds
#
# Revision: 0
# Processed by: cddbd v1.5.2PL0 Copyright (c) Steve Scherf et al.
# Submitted via: ExactAudioCopyFreeDBPlugin 1.0
#
DISCID=4605cd06
DTITLE=Philip Bölter - Bölter
DYEAR=2011
DGENRE=Country
TTITLE0=Four Wheels Turning
TTITLE1=Quit You
TTITLE2=Feed My Life
TTITLE3=Stone
TTITLE4=Peaceful Day
TTITLE5=Quit You (Radio Edit)
EXTD=
EXTT0=
EXTT1=
EXTT2=
EXTT3=
EXTT4=
EXTT5=
PLAYORDER=
